# xmcd
#
# Track frame offsets: 
#        150
#        15325
#        33125
#        50395
#        60170
#        75712
#        91600
#        105305
#        119075
#        138050
#        160325
#        174545
#
# Disc length: 2574 seconds
#
# Revision: 3
# Processed by: cddbd v1.5.1PL2 Copyright (c) Steve Scherf et al.
# Submitted via: ExactAudioCopy v0.95a5
#
DISCID=7f0a0c0c
DTITLE=Jimmie Tittle - Real life
DYEAR=1990
DGENRE=Country
TTITLE0=Real life
TTITLE1=Rivers without an end
TTITLE2=I'll see you again
TTITLE3=My love's not made that way
TTITLE4=Too cold to care
TTITLE5=Long way back home
TTITLE6=An american original
TTITLE7=If I had a heart
TTITLE8=Looking for another way to say goodbye
TTITLE9=For America
TTITLE10=Lonely is a state of mind
TTITLE11=The january man
EXTD=(c)1990 Dixie Frogg France - CBS France Special Marketing\nupc 50
EXTD=99746769925
EXTT0=
EXTT1=
EXTT2=
EXTT3=
EXTT4=
EXTT5=
EXTT6=
EXTT7=
EXTT8=
EXTT9=
EXTT10=
EXTT11=
PLAYORDER=
